HIERARCHY
ROOT Hips
{
	OFFSET -0.001795 -0.223333 0.028219
	CHANNELS 6 Xposition Yposition Zposition Zrotation Yrotation Xrotation 
	JOINT LeftUpLeg
	{
		OFFSET 0.069520 -0.091406 -0.006815
		CHANNELS 3 Zrotation Yrotation Xrotation
		JOINT LeftLeg
		{
			OFFSET 0.034277 -0.375199 -0.004496
			CHANNELS 3 Zrotation Yrotation Xrotation
			JOINT LeftFoot
			{
				OFFSET -0.013596 -0.397961 -0.043693
				CHANNELS 3 Zrotation Yrotation Xrotation
				JOINT LeftToe
				{
					OFFSET 0.026358 -0.055791 0.119288
					CHANNELS 3 Zrotation Yrotation Xrotation
					End Site
					{
						OFFSET 0.000000 0.000000 0.000000
					}
				}
			}
		}
	}
	JOINT RightUpLeg
	{
		OFFSET -0.067670 -0.090522 -0.004320
		CHANNELS 3 Zrotation Yrotation Xrotation
		JOINT RightLeg
		{
			OFFSET -0.038290 -0.382569 -0.008850
			CHANNELS 3 Zrotation Yrotation Xrotation
			JOINT RightFoot
			{
				OFFSET 0.015774 -0.398415 -0.042312
				CHANNELS 3 Zrotation Yrotation Xrotation
				JOINT RightToe
				{
					OFFSET -0.025372 -0.048144 0.123348
					CHANNELS 3 Zrotation Yrotation Xrotation
					End Site
					{
						OFFSET 0.000000 0.000000 0.000000
					}
				}
			}
		}
	}
	JOINT Spine
	{
		OFFSET -0.002533 0.108963 -0.026696
		CHANNELS 3 Zrotation Yrotation Xrotation
		JOINT Spine1
		{
			OFFSET 0.005487 0.135180 0.001092
			CHANNELS 3 Zrotation Yrotation Xrotation
			JOINT Spine2
			{
				OFFSET 0.001457 0.052922 0.025425
				CHANNELS 3 Zrotation Yrotation Xrotation
				JOINT Neck
				{
					OFFSET -0.002778 0.213870 -0.042857
					CHANNELS 3 Zrotation Yrotation Xrotation
					JOINT Head
					{
						OFFSET 0.005152 0.064970 0.051349
						CHANNELS 3 Zrotation Yrotation Xrotation
						End Site
						{
							OFFSET 0.000000 0.000000 0.000000
						}
					}
				}
				JOINT LeftShoulder
				{
					OFFSET 0.078845 0.121749 -0.034090
					CHANNELS 3 Zrotation Yrotation Xrotation
					JOINT LeftArm
					{
						OFFSET 0.090977 0.030469 -0.008868
						CHANNELS 3 Zrotation Yrotation Xrotation
						JOINT LeftForeArm
						{
							OFFSET 0.259612 -0.012772 -0.027456
							CHANNELS 3 Zrotation Yrotation Xrotation
							JOINT LeftHand
							{
								OFFSET 0.249234 0.008986 -0.001171
								CHANNELS 3 Zrotation Yrotation Xrotation
								End Site
								{
									OFFSET 0.000000 0.000000 0.000000
								}
							}
						}
					}
				}
				JOINT RightShoulder
				{
					OFFSET -0.081759 0.118833 -0.038615
					CHANNELS 3 Zrotation Yrotation Xrotation
					JOINT RightArm
					{
						OFFSET -0.096012 0.032551 -0.009143
						CHANNELS 3 Zrotation Yrotation Xrotation
						JOINT RightForeArm
						{
							OFFSET -0.253742 -0.013329 -0.021401
							CHANNELS 3 Zrotation Yrotation Xrotation
							JOINT RightHand
							{
								OFFSET -0.255298 0.007772 -0.005559
								CHANNELS 3 Zrotation Yrotation Xrotation
								End Site
								{
									OFFSET 0.000000 0.000000 0.000000
								}
							}
						}
					}
				}
			}
		}
	}
}
MOTION
Frames: 14
Frame Time: 0.050000
0.000000 0.959957 0.000000 -3.053689 15.333939 11.844125 10.105048 -0.839760 -8.009266 -8.054166 0.235323 -6.136475 12.014276 23.809300 16.368963 0.000000 0.000000 0.000000 -3.215127 1.041637 -19.904899 3.646523 -0.517199 2.905375 -8.305854 -17.805470 21.197434 0.000000 0.000000 0.000000 -1.513907 -1.699681 25.690494 7.744896 -1.300441 -19.358534 2.347236 -6.661296 26.579766 -5.566672 4.921976 -15.418187 0.000000 0.000000 0.000000 -5.897895 -16.149617 6.315602 -36.640505 -29.417226 2.061844 -49.158883 -67.630601 38.168902 0.000000 0.000000 0.000000 6.775144 20.836796 8.814585 48.840087 28.721568 4.705546 -10.261244 38.786003 -1.361473 0.000000 0.000000 0.000000 
-0.000446 0.959197 0.002282 -3.760200 14.514488 12.195585 10.290760 -0.834647 -8.323496 -6.193965 0.224840 -6.856829 14.189650 26.385243 19.243729 0.000000 0.000000 0.000000 -3.288476 1.079222 -20.479534 5.578606 -0.800484 1.607376 -9.599806 -19.832979 22.791244 0.000000 0.000000 0.000000 -0.493092 -1.979032 25.987542 7.794563 -1.336037 -19.482101 2.892196 -6.088487 26.936918 -7.436155 6.149923 -17.580949 0.000000 0.000000 0.000000 -6.126330 -15.984631 6.278769 -35.391530 -29.336023 1.869857 -59.233646 -69.997521 47.845073 0.000000 0.000000 0.000000 3.103398 20.474573 7.971432 53.516267 29.169080 6.029642 -12.819692 40.339579 -2.184276 0.000000 0.000000 0.000000 
-0.000903 0.957529 0.004651 -3.599128 12.861968 11.805373 10.368996 -0.770856 -7.308544 -6.970116 0.284680 -6.411131 14.111331 26.254571 18.159924 0.000000 0.000000 0.000000 -3.048097 1.165605 -19.760531 5.659392 -0.780591 1.183950 -7.885233 -17.615540 20.990131 0.000000 0.000000 0.000000 -0.584965 -1.788746 25.548252 8.680033 -1.642006 -19.179169 1.713398 -5.350233 27.249239 -6.763083 5.792277 -15.062842 0.000000 0.000000 0.000000 -8.365623 -15.828504 6.443701 -32.301310 -29.505362 1.438296 -56.672633 -69.687193 45.461432 0.000000 0.000000 0.000000 4.462965 19.487985 7.797189 53.622628 29.650786 6.202579 -10.263437 41.142373 -1.365067 0.000000 0.000000 0.000000 
-0.001436 0.957314 0.007291 -3.858826 11.995507 12.037158 10.582880 -0.756243 -6.677485 -6.691141 0.279913 -7.000249 15.728874 28.076741 18.699206 0.000000 0.000000 0.000000 -2.922530 1.232272 -19.963312 6.253039 -0.847047 0.838857 -7.642873 -17.360400 21.951968 0.000000 0.000000 0.000000 -1.109494 -1.601710 25.601596 9.438097 -1.962249 -18.420603 2.023845 -5.096372 26.985594 -7.207083 6.013333 -16.227719 0.000000 0.000000 0.000000 -6.742292 -15.152670 6.018620 -33.550420 -28.251376 1.373941 -59.728761 -70.729307 48.770826 0.000000 0.000000 0.000000 3.330082 19.577875 7.586676 54.039636 29.146321 6.146684 -9.590280 42.180707 -1.226248 0.000000 0.000000 0.000000 
-0.001889 0.956228 0.010041 -3.376565 11.400087 12.146137 9.930914 -0.724796 -6.578837 -6.397207 0.312028 -6.328471 15.521073 27.844514 18.436319 0.000000 0.000000 0.000000 -3.034086 1.237447 -19.996366 5.867165 -0.780517 0.808728 -7.599956 -17.394782 21.870932 0.000000 0.000000 0.000000 -1.008345 -1.580405 25.526234 9.163053 -1.855316 -18.757807 1.720624 -5.364286 27.330634 -7.191371 5.921205 -16.588468 0.000000 0.000000 0.000000 -6.411288 -14.528840 5.795726 -32.814988 -28.524233 1.344551 -55.086565 -70.619357 45.006416 0.000000 0.000000 0.000000 3.461968 19.666609 7.594129 54.596631 28.364660 5.794502 -6.766752 44.651501 -0.222683 0.000000 0.000000 0.000000 
-0.002148 0.956100 0.012485 -3.251163 11.167080 12.254271 9.993567 -0.721325 -6.463802 -6.163415 0.304939 -6.609308 15.487787 27.766614 18.903020 0.000000 0.000000 0.000000 -2.944161 1.259356 -20.002993 5.657438 -0.750134 0.982699 -7.260522 -16.929476 20.960591 0.000000 0.000000 0.000000 -0.902366 -1.595042 25.531479 9.104423 -1.810074 -19.058593 2.122965 -5.140025 27.446637 -6.957598 5.794738 -16.068226 0.000000 0.000000 0.000000 -5.463654 -14.839013 5.824160 -33.454280 -28.135152 1.333153 -47.690319 -69.189550 38.073261 0.000000 0.000000 0.000000 3.621789 19.530622 7.576363 54.508868 27.589058 5.400466 -2.836766 46.650258 1.421599 0.000000 0.000000 0.000000 
-0.002148 0.955757 0.014656 -2.812123 10.945073 12.589320 9.601146 -0.714703 -6.673598 -6.115991 0.314591 -6.375225 15.388265 27.642307 19.114380 0.000000 0.000000 0.000000 -3.427957 1.206752 -20.432689 5.709859 -0.766698 1.632814 -7.560293 -17.446233 20.568072 0.000000 0.000000 0.000000 -0.551804 -1.654870 25.328619 9.085815 -1.779961 -19.289430 2.243123 -4.967513 27.274053 -6.584766 5.545372 -15.908673 0.000000 0.000000 0.000000 -5.631547 -14.814866 5.823272 -32.547271 -27.620432 1.120631 -42.841347 -67.098179 32.961045 0.000000 0.000000 0.000000 3.977542 19.778231 7.744194 54.379875 26.535294 4.886591 -0.233635 48.172128 2.614021 0.000000 0.000000 0.000000 
-0.002144 0.955584 0.016694 -2.479428 11.078915 12.961476 9.192985 -0.721657 -7.079297 -6.031821 0.320012 -6.023277 15.236571 27.538561 18.316581 0.000000 0.000000 0.000000 -3.678488 1.167932 -20.590385 5.767584 -0.782854 1.902693 -7.497633 -17.362908 19.421570 0.000000 0.000000 0.000000 -0.019063 -1.786528 25.109105 8.948865 -1.737482 -19.191377 2.843196 -4.627349 26.583367 -6.169848 5.320483 -14.453001 0.000000 0.000000 0.000000 -6.397232 -15.843055 6.280202 -31.379165 -26.839527 0.843398 -37.838800 -64.480960 27.712041 0.000000 0.000000 0.000000 4.209271 19.875416 7.858868 53.535745 25.751655 4.464034 2.778805 48.973110 3.996848 0.000000 0.000000 0.000000 
-0.002512 0.955772 0.018774 -2.215158 11.329598 13.144083 8.889444 -0.722325 -6.981939 -5.751186 0.311236 -5.958984 14.624709 26.827726 18.088268 0.000000 0.000000 0.000000 -3.870560 1.125834 -20.555769 5.508153 -0.755770 2.321566 -7.505286 -17.338020 19.133127 0.000000 0.000000 0.000000 0.387798 -1.897069 24.947565 9.320865 -1.829469 -19.228063 3.031689 -4.241780 26.086528 -5.923873 5.209394 -13.914763 0.000000 0.000000 0.000000 -6.948568 -16.255696 6.443083 -29.964950 -26.950295 0.747609 -34.566851 -62.392593 24.261071 0.000000 0.000000 0.000000 4.742264 20.380985 8.207182 52.717762 25.209807 4.159480 4.319068 48.995463 4.681281 0.000000 0.000000 0.000000 
-0.003711 0.955888 0.020818 -1.929043 11.512517 13.408268 8.418404 -0.723517 -7.143330 -4.972255 0.296861 -5.750055 13.984861 26.098055 17.559990 0.000000 0.000000 0.000000 -3.968499 1.103248 -20.632066 5.347262 -0.738134 2.556531 -7.496150 -17.290953 19.041032 0.000000 0.000000 0.000000 0.917970 -2.040641 24.821072 9.487223 -1.827796 -19.590553 3.317900 -4.187170 25.594297 -5.672470 5.034380 -13.888178 0.000000 0.000000 0.000000 -7.331185 -16.715096 6.658270 -28.807139 -26.281216 0.526056 -32.962830 -61.355297 22.632436 0.000000 0.000000 0.000000 4.777486 20.760688 8.384217 52.501333 24.739148 3.967988 6.553237 49.385969 5.723776 0.000000 0.000000 0.000000 
-0.005643 0.956174 0.022587 -1.825911 11.305665 13.696521 8.184848 -0.719206 -7.108280 -4.247782 0.283609 -5.720044 13.421424 25.414299 17.398609 0.000000 0.000000 0.000000 -4.057100 1.108556 -20.952287 5.365696 -0.748968 3.129249 -7.408033 -17.200354 18.576754 0.000000 0.000000 0.000000 1.018963 -2.041773 24.662405 9.637243 -1.801932 -20.218322 3.559332 -3.942430 25.564212 -5.462998 4.906709 -13.480476 0.000000 0.000000 0.000000 -7.087643 -16.709678 6.621261 -27.719305 -26.325877 0.428465 -31.418972 -60.093371 21.025931 0.000000 0.000000 0.000000 4.952028 20.883293 8.490135 52.580467 24.667877 3.952335 7.067249 49.899548 6.072295 0.000000 0.000000 0.000000 
-0.007847 0.956291 0.023880 -1.692143 11.351369 13.951786 8.037981 -0.721827 -7.136331 -3.832208 0.273232 -5.699899 12.942412 24.838973 17.023566 0.000000 0.000000 0.000000 -4.231454 1.086107 -21.292782 5.288029 -0.741156 3.355984 -7.158481 -16.780746 18.445080 0.000000 0.000000 0.000000 1.192240 -2.064377 24.409330 9.942971 -1.847807 -20.516622 3.696711 -4.012368 24.913238 -5.523761 4.929167 -12.801033 0.000000 0.000000 0.000000 -6.660663 -16.567375 6.528421 -27.014819 -26.432966 0.419740 -30.254867 -58.743167 19.732506 0.000000 0.000000 0.000000 5.356042 21.202377 8.696865 52.256060 24.413658 3.824754 8.486672 50.457649 6.798371 0.000000 0.000000 0.000000 
-0.009590 0.956456 0.024776 -1.547632 10.795924 14.289331 7.778924 -0.710566 -7.055976 -3.394510 0.267850 -5.754246 12.582333 24.376728 16.813921 0.000000 0.000000 0.000000 -4.240922 1.124273 -21.777889 5.057055 -0.698363 3.617048 -6.898216 -16.450454 18.081769 0.000000 0.000000 0.000000 1.371185 -2.056877 24.154693 9.875040 -1.769036 -21.123646 3.851142 -4.196294 24.955521 -5.721893 5.009306 -13.092880 0.000000 0.000000 0.000000 -6.025568 -16.469616 6.496233 -26.547114 -26.970079 0.463353 -27.306985 -57.189117 17.495462 0.000000 0.000000 0.000000 5.142076 21.362174 8.677939 52.637344 24.586786 3.927277 8.792238 51.449265 7.100546 0.000000 0.000000 0.000000 
-0.010577 0.956587 0.025347 -1.415864 10.401070 14.451833 7.456011 -0.695671 -6.902233 -3.044114 0.262325 -5.862784 12.361134 24.084102 16.696544 0.000000 0.000000 0.000000 -4.163180 1.159375 -21.839278 5.000443 -0.678942 3.421402 -6.676135 -16.150159 17.843017 0.000000 0.000000 0.000000 1.518906 -2.031017 23.748422 10.209907 -1.870736 -21.015713 3.884916 -4.449153 24.444281 -6.031014 5.154376 -13.310452 0.000000 0.000000 0.000000 -5.401093 -16.767920 6.611609 -26.014312 -28.095999 0.641478 -22.708413 -55.088020 14.303927 0.000000 0.000000 0.000000 4.844668 21.858607 8.772256 52.690693 25.200977 4.238361 8.691584 51.705022 7.030027 0.000000 0.000000 0.000000 
